<svg width="130" height="126" viewBox="0 0 130 126" fill="none" xmlns="http://www.w3.org/2000/svg">
<path d="M52.6992 0.718597C39.048 3.20934 27.1212 9.532 17.9246 19.016C9.30277 27.9252 4.27339 37.1697 1.15995 49.815C0.201975 53.6948 0.0582777 55.5629 0.106177 62.5082C0.106177 71.5132 0.776762 75.5847 3.6507 83.5838C8.82378 98.3846 19.17 110.503 32.917 117.975C37.9463 120.705 41.6825 122.142 48.6278 123.867L54.1362 125.256H90.6831H127.278L128.188 124.106C129.002 123.1 129.098 122.142 129.098 113.521C129.098 108.3 128.954 103.653 128.811 103.222C127.948 101.067 127.709 101.067 93.3175 101.067C72.721 101.067 59.2614 100.875 56.5311 100.54C48.2925 99.5341 42.1614 96.8997 35.8388 91.535C31.7674 88.0863 28.7018 83.967 26.1632 78.4586C23.3851 72.567 22.6187 68.2561 22.8582 60.9276C23.1456 53.4553 24.4388 49.0965 28.0792 43.1092C32.5338 35.8285 39.1438 30.2722 46.8555 27.3025C53.8967 24.5723 55.9563 24.4286 92.9822 24.4286C126.224 24.4286 126.607 24.4286 127.853 23.4227L129.098 22.4647V12.2622C129.098 2.25136 129.098 2.05976 127.996 1.05389L126.895 0.000106812L91.4495 0.0480118C64.674 0.0959091 55.2379 0.239601 52.6992 0.718597Z" fill="#0077B6"/>
<path d="M67.1168 52.0187C62.9496 53.5515 61.5605 56.138 61.5605 62.5086C61.5605 69.3102 62.9975 72.0884 67.3084 73.5253C69.2723 74.1959 73.0563 74.2438 96.0957 74.148L122.632 74.0043L124.739 72.8069C128.044 70.9388 129.098 68.4959 129.098 62.8918C129.098 60.2094 128.859 57.7666 128.427 56.8565C127.613 54.7968 124.787 52.4019 122.536 51.7792C121.338 51.4439 111.519 51.2523 94.8503 51.3002C73.5832 51.3002 68.6496 51.4439 67.1168 52.0187Z" fill="#0077B6"/>
</svg>
