<svg width="129" height="129" viewBox="0 0 129 129" fill="none" xmlns="http://www.w3.org/2000/svg">
<path d="M123.186 94.5621C123.186 93.1163 124.397 91.9053 125.843 91.9053C127.289 91.9053 128.5 93.1163 128.5 94.5621V107.763C128.5 119.11 119.253 128.357 107.907 128.357H93.5572C92.1115 128.357 90.9004 127.146 90.9004 125.7C90.9004 124.254 92.1115 123.043 93.5572 123.043H107.907C116.362 123.043 123.186 116.219 123.186 107.763V94.5621Z" fill="#0077B6" stroke="#0077B6"/>
<path d="M93.5572 0.5H107.907C119.253 0.5 128.5 9.74666 128.5 21.0934V36.4472C128.5 37.8929 127.289 39.104 125.843 39.104C124.397 39.104 123.186 37.8929 123.186 36.4472V21.0934C123.186 12.6382 116.362 5.81368 107.907 5.81368H93.5572C92.1115 5.81368 90.9004 4.60261 90.9004 3.15684C90.9004 1.71107 92.1115 0.5 93.5572 0.5Z" fill="#0077B6" stroke="#0077B6"/>
<path d="M95.2099 58.9581C95.0752 60.8592 93.5574 62.3496 91.6921 62.3496C89.8042 62.3496 88.1743 60.8399 88.1743 58.8318V48.6438C88.1743 46.7558 89.6839 45.126 91.6921 45.126C93.7119 45.126 95.2099 46.624 95.2099 48.6438V58.9581Z" fill="#0077B6" stroke="#0077B6"/>
<path d="M44.5392 91.0195L44.549 91.0305L44.5594 91.0409C49.8154 96.2969 56.6854 99.2229 63.9975 99.2229H65.1454C72.3126 99.2229 79.3265 96.2979 84.5835 91.0409C85.692 89.9324 87.3664 89.9641 88.3045 91.0195L88.3143 91.0305L88.3247 91.0409C89.4332 92.1494 89.4014 93.8238 88.3461 94.7619L88.333 94.7735L88.3207 94.786C82.1027 101.145 73.7663 104.537 65.1454 104.537H63.9975C55.3799 104.537 47.1837 101.148 40.8182 94.782C39.7097 93.6736 39.7415 91.9991 40.7969 91.061L40.8078 91.0513L40.8182 91.0409C41.9267 89.9324 43.6011 89.9641 44.5392 91.0195Z" fill="#0077B6" stroke="#0077B6"/>
<path d="M57.3973 81.4345H56.6798C55.234 81.4345 54.0229 80.2234 54.0229 78.7776C54.0229 77.3319 55.234 76.1208 56.6798 76.1208H57.3973C60.5344 76.1208 63.2065 73.6098 63.2065 70.3116V48.6441C63.2065 47.1984 64.4176 45.9873 65.8633 45.9873C67.3091 45.9873 68.5202 47.1984 68.5202 48.6441V70.455C68.5202 76.4886 63.5823 81.4345 57.3973 81.4345Z" fill="#0077B6" stroke="#0077B6"/>
<path d="M31.9248 48.6438C31.9248 46.7558 33.4344 45.126 35.4426 45.126C37.3306 45.126 38.9604 46.6356 38.9604 48.6438V58.9753C38.9604 60.8396 37.4744 62.3496 35.4426 62.3496C33.5546 62.3496 31.9248 60.8399 31.9248 58.8318V48.6438Z" fill="#0077B6" stroke="#0077B6"/>
<path d="M5.95724 36.4472C5.95724 37.8929 4.74617 39.104 3.3004 39.104C1.85463 39.104 0.643555 37.8929 0.643555 36.4472V21.0934C0.643555 9.74666 9.89022 0.5 21.237 0.5H35.5863C37.032 0.5 38.2431 1.71107 38.2431 3.15684C38.2431 4.60261 37.032 5.81368 35.5863 5.81368H21.237C12.7818 5.81368 5.95724 12.6382 5.95724 21.0934V36.4472Z" fill="#0077B6" stroke="#0077B6"/>
<path d="M21.0934 123.043H35.4427C36.8885 123.043 38.0996 124.254 38.0996 125.7C38.0996 127.161 37.0171 128.357 35.4427 128.357H21.0934C9.74667 128.357 0.5 119.11 0.5 107.763V94.5621C0.5 93.1163 1.71107 91.9053 3.15684 91.9053C4.60261 91.9053 5.81368 93.1163 5.81368 94.5621V107.763C5.81368 116.219 12.6382 123.043 21.0934 123.043Z" fill="#0077B6" stroke="#0077B6"/>
</svg>
