<svg width="114" height="122" viewBox="0 0 114 122" fill="none" xmlns="http://www.w3.org/2000/svg">
<path d="M99.7715 0.309303C89.5951 3.04199 67.3208 21.872 45.4593 46.2242C44.5057 47.2775 42.755 49.2273 41.5595 50.5652C36.151 56.5715 31.5111 62.0084 31.2265 62.7058C30.7426 63.8159 31.3546 64.6272 36.3645 69.6514C39.7946 73.0815 41.2179 74.334 41.8157 74.4763C42.385 74.5901 43.0112 74.3197 44.0502 73.4658C45.2885 72.4695 55.6642 63.389 56.8739 62.2361C56.9593 62.1649 57.244 61.8945 57.5144 61.6668C59.1654 60.2008 62.4532 57.2262 63.478 56.2726C64.1469 55.6463 65.1005 54.7497 65.6129 54.28C81.5678 39.5206 97.3235 21.4023 102.647 11.7098C104.497 8.33659 105.337 6.04511 105.436 4.08099C105.493 2.82851 105.465 2.62924 105.137 1.93184C104.326 0.138512 102.462 -0.416565 99.7715 0.309303Z" fill="#0077B6"/>
<path d="M106.888 9.91742C106.888 10.259 105.821 12.3512 104.013 15.5109C103.316 16.7491 102.775 17.8166 102.817 17.8878C102.874 17.9589 103.116 18.0586 103.373 18.1155C103.985 18.2436 104.967 18.8271 105.251 19.2114C106.105 20.4497 104.17 25.2034 100.739 30.2845C97.3806 35.2518 93.4381 39.8916 89.2821 43.7487C85.1688 47.5631 82.123 49.8973 77.7963 52.5588C73.0852 55.4481 72.0889 56.117 70.9645 57.1702C69.6836 58.3942 69.2993 59.2909 69.6409 60.3014C70.8364 63.76 74.6081 63.0768 82.1657 58.01C89.1255 53.3558 97.8502 45.2147 102.604 38.9665C107.486 32.5475 110.973 25.7727 112.396 19.8946C112.88 17.8735 113.008 15.2547 112.667 14.0165C112.197 12.3085 110.93 11.1272 108.624 10.2448C106.888 9.59007 106.888 9.59007 106.888 9.91742Z" fill="#0077B6"/>
<path d="M26.473 69.2248C25.4909 69.7372 23.4841 70.8189 21.9896 71.6302C20.5094 72.4414 17.4921 74.064 15.3002 75.2595C13.1084 76.4409 10.8738 77.7218 10.3188 78.0919C9.19437 78.8462 9.22284 78.7893 8.59659 81.5931C7.45797 86.7596 4.9957 93.3494 1.55137 100.437C0.697406 102.188 0 103.668 0 103.711C0 103.754 3.28777 100.508 7.31565 96.4806L14.6171 89.1792L14.5459 87.8698C14.4605 86.2899 14.6171 85.7633 15.3714 84.8951C16.7947 83.2868 19.3708 83.2441 20.8795 84.824C22.502 86.5034 22.0608 89.5208 20.0397 90.5882C19.3566 90.9583 19.1573 90.9867 17.7625 90.9867H16.2254L9.03781 98.1743C5.09533 102.117 1.87873 105.376 1.90719 105.405C1.93566 105.419 3.302 104.807 4.92454 104.024C12.6102 100.366 20.1821 97.6192 25.804 96.4664C26.2595 96.381 26.7861 96.1675 26.9711 95.9967C27.1561 95.8259 27.6827 95.0146 28.124 94.1891C28.5652 93.3636 29.7038 91.2856 30.6432 89.5635C35.8951 79.8994 37.361 77.0671 37.1902 76.7682C36.7775 76.0281 28.8214 68.2855 28.4798 68.2855C28.3517 68.2855 27.455 68.7125 26.473 69.2248Z" fill="#0077B6"/>
<path d="M75.6327 79.5012C74.8642 80.0562 74.4656 80.8675 73.3839 84.0556C69.5696 95.2284 63.3356 106.771 58.2118 112.18C56.3046 114.186 55.593 114.571 54.8386 114.044C54.3263 113.688 54.1982 112.621 54.369 110.187C54.6109 106.6 55.6641 101.904 57.5998 95.8973C58.1833 94.0613 58.6957 92.1968 58.7384 91.7698C58.8238 90.7735 58.4111 89.9053 57.5286 89.2506C56.9736 88.8379 56.8028 88.7809 55.9915 88.7809C54.2551 88.7809 53.7143 89.2648 51.9921 92.3391C47.6511 100.082 44.8899 103.825 41.1752 107.013C36.1652 111.326 30.8422 113.446 22.6014 114.4C19.5414 114.756 18.8582 115.097 18.3885 116.521C17.8761 118.029 18.7443 119.922 20.1818 120.392C21.2208 120.733 25.7042 120.335 29.0631 119.595C35.5248 118.157 40.9332 115.41 45.8862 111.027C46.5836 110.415 47.3664 109.732 47.6369 109.518L48.1065 109.12V109.518C48.1208 111.027 48.4339 114.258 48.6759 115.183C49.0459 116.62 49.5583 117.517 50.6115 118.613C51.252 119.282 51.7786 119.652 52.5756 120.036C53.5577 120.506 53.7997 120.563 54.8386 120.563C56.575 120.577 58.3826 119.88 60.3467 118.456C62.0262 117.232 65.1432 113.774 67.0219 111.027C67.4631 110.372 67.8616 109.845 67.9328 109.845C67.9897 109.845 68.0324 110.472 68.0324 111.24C68.0324 115.183 68.986 118.3 70.7224 120.065C72.0603 121.417 73.6828 122.014 76.0028 122C78.6216 121.986 80.5146 121.16 82.9057 119.04L83.4607 118.542L84.2578 119.353C85.1402 120.278 86.0511 120.947 87.0616 121.402C87.9868 121.815 91.303 121.943 92.5555 121.616C93.566 121.346 95.3024 120.378 96.2702 119.538C96.6688 119.182 97.0957 118.812 97.2238 118.712C97.4231 118.542 97.6081 118.67 98.6471 119.709C100.44 121.474 101.693 122 104.255 122C106.632 122.014 108.155 121.474 110.133 119.979C111.855 118.67 113.278 116.948 113.592 115.766C114.019 114.201 112.396 112.265 110.645 112.265C109.763 112.265 109.307 112.507 107.856 113.802C105.863 115.567 104.625 116.179 103.543 115.909C103.031 115.78 102.618 114.855 102.618 113.831C102.618 112.607 102.988 110.358 103.543 108.18C104.127 105.846 104.169 105.049 103.7 104.152C103.202 103.17 102.405 102.672 101.181 102.615C100.298 102.558 100.127 102.601 99.6149 102.928C98.9175 103.398 98.2771 104.38 97.9639 105.433C97.5939 106.757 96.5264 109.333 95.9144 110.443C94.1496 113.574 92.0431 115.567 90.2498 115.78C89.3531 115.88 88.8834 115.61 88.6842 114.87C88.3568 113.717 88.4992 112.407 89.3247 108.636C90.1502 104.921 90.1359 104.38 89.1254 103.37C88.4707 102.715 87.8729 102.444 87.0332 102.444C85.6668 102.444 84.5424 103.341 83.9731 104.878C83.4892 106.188 82.6637 108.066 81.824 109.746C79.746 113.93 77.6965 116.25 76.1024 116.25C75.4904 116.25 74.6507 115.482 74.4514 114.713C73.7967 112.379 74.366 106.629 75.9458 99.5267C76.444 97.3064 76.7713 96.0112 79.1198 86.7599C79.7602 84.2691 80.2726 81.9634 80.2726 81.6218C80.2726 80.1986 78.9205 79.1026 77.1414 79.1026C76.3159 79.1026 76.1166 79.1596 75.6327 79.5012Z" fill="#0077B6"/>
</svg>
