<svg width="177" height="95" viewBox="0 0 177 95" fill="none" xmlns="http://www.w3.org/2000/svg">
<path d="M174.294 26.977C167.274 21.8012 148.652 8.07041 144.036 4.68424C137.417 -0.192142 130.417 -1.31023 124.981 1.56031C116.503 6.02205 115.694 16.5846 115.638 17.7789C115.569 20.0948 117.36 22.0191 119.624 22.1077H119.634C122.004 22.1077 123.838 20.3092 123.916 18.1049C123.937 17.4085 124.291 11.2705 128.84 8.89259C129.622 8.47796 130.545 8.26533 131.564 8.26533C133.201 8.26533 135.867 8.8164 139.255 11.4389C141.873 13.4695 156.958 28.974 156.958 28.974H132.318C124.089 28.974 116.572 32.0288 110.783 37.031L110.813 36.9743C106.765 40.0256 100.016 41.188 88.5 41.3687C76.9826 41.188 70.2389 40.0238 66.1909 36.9743L66.2192 37.031C60.4313 32.0288 52.9124 28.974 44.6836 28.974H20.0399C20.0399 28.974 35.1221 13.4695 37.7435 11.4389C41.1313 8.8164 43.7951 8.26533 45.4324 8.26533C46.4536 8.26533 47.3723 8.47619 48.1582 8.89259C52.7053 11.2705 53.0628 17.4103 53.0841 18.1049C53.1619 20.3092 54.9992 22.1077 57.3639 22.1077H57.3746C59.6384 22.0191 61.4278 20.0948 61.3606 17.7789C61.3039 16.5864 60.4933 6.02205 52.0168 1.56031C46.5811 -1.31023 39.5807 -0.192142 32.9609 4.68424C28.3501 8.06864 9.735 21.7941 2.71341 26.9752C1.2213 28.0756 0 30.4943 0 32.3495V39.6304C0 41.4839 0.79473 44.2906 1.77 45.8712L4.87635 50.9071L6.32067 53.2478L11.7086 61.9835C11.7086 80.1884 26.4969 95 44.6801 95C62.8669 95 77.6694 80.1901 77.6694 61.9835C77.6694 57.2949 81.7634 52.5213 88.4982 52.5213C95.2384 52.5213 99.3306 57.2949 99.3306 61.9835C99.3306 80.1884 114.131 95 132.318 95C150.501 95 165.29 80.1901 165.29 61.9835L175.23 45.8748C176.203 44.296 177 41.4857 177 39.6304V32.3495C177 30.4979 175.782 28.0809 174.294 26.977ZM10.6058 45.5558C7.53843 45.5558 5.05866 43.068 5.05866 40.0008C5.05866 36.93 7.53843 34.4457 10.6058 34.4457C13.6715 34.4457 16.1566 36.93 16.1566 40.0008C16.1566 43.0662 13.6715 45.5558 10.6058 45.5558ZM44.6801 84.5243C32.2671 84.5243 22.1728 74.4118 22.1728 61.9817C22.1728 49.5533 32.2671 39.4479 44.6801 39.4479C57.0967 39.4479 67.2016 49.5533 67.2016 61.9817C67.2016 74.4118 57.0967 84.5243 44.6801 84.5243ZM132.318 84.5243C119.902 84.5243 109.797 74.4118 109.797 61.9817C109.797 49.5533 119.902 39.4479 132.318 39.4479C144.733 39.4479 154.827 49.5533 154.827 61.9817C154.825 74.4118 144.731 84.5243 132.318 84.5243ZM166.392 45.5558C163.329 45.5558 160.847 43.068 160.847 40.0008C160.847 36.93 163.327 34.4457 166.392 34.4457C169.46 34.4457 171.943 36.93 171.943 40.0008C171.941 43.0662 169.46 45.5558 166.392 45.5558Z" fill="#4C00FF"/>
</svg>
