<svg width="38" height="38" viewBox="0 0 38 38" fill="none" xmlns="http://www.w3.org/2000/svg">
<path d="M11.0809 0C4.97122 0 0 4.97415 0 11.0853V26.9177C0 33.0281 4.97415 38 11.0853 38H26.9177C33.0281 38 38 33.0258 38 26.9147V11.0809C38 4.97122 33.0258 0 26.9147 0H11.0809ZM30.4 6.08C31.239 6.08 31.92 6.76096 31.92 7.6C31.92 8.43904 31.239 9.12 30.4 9.12C29.561 9.12 28.88 8.43904 28.88 7.6C28.88 6.76096 29.561 6.08 30.4 6.08ZM19 9.12C24.4492 9.12 28.88 13.5508 28.88 19C28.88 24.4492 24.4484 28.88 19 28.88C13.5508 28.88 9.12 24.4484 9.12 19C9.12 13.5516 13.5508 9.12 19 9.12ZM19 12.16C15.222 12.16 12.16 15.222 12.16 19C12.16 22.778 15.222 25.84 19 25.84C22.778 25.84 25.84 22.778 25.84 19C25.84 15.222 22.778 12.16 19 12.16Z" fill="#0077B6"/>
</svg>
