<svg width="140" height="122" viewBox="0 0 140 122" fill="none" xmlns="http://www.w3.org/2000/svg">
<path d="M70.0051 18.9371C74.9524 18.7916 78.8811 14.8629 79.0266 9.91564C79.1721 4.53185 74.8069 0.166621 69.4231 0.312129C64.4758 0.457637 60.5471 4.38635 60.4016 9.33361C60.2561 14.7174 64.6213 19.0826 70.0051 18.9371ZM137.521 74.8121H134.902L116.422 39.0172C119.041 38.7262 121.66 37.7076 123.989 36.6891C127.481 35.0885 128.208 30.4322 125.589 27.6676L125.444 27.5221C123.843 25.9215 121.369 25.3395 119.187 26.358C117.15 27.2311 114.239 28.2496 111.475 28.2496C103.326 28.2496 99.6887 18.9371 69.7141 18.9371C39.7395 18.9371 36.1018 28.2496 27.9534 28.2496C25.0432 28.2496 22.2786 27.3766 20.2415 26.358C18.0588 25.485 15.5852 25.9215 13.9846 27.5221L13.8391 27.6676C11.22 30.4322 11.9475 34.943 15.4397 36.6891C17.7678 37.8531 20.387 38.7262 23.0061 39.0172L4.52661 74.8121H1.90747C0.743405 74.8121 -0.129642 75.8307 0.015866 76.9947C1.61645 86.3072 13.4026 93.4371 27.8079 93.4371C42.2131 93.4371 53.9993 86.3072 55.5999 76.9947C55.7454 75.8307 54.8723 74.8121 53.7082 74.8121H51.0891L32.6096 39.1627C44.6868 38.1442 51.0891 32.0328 60.4016 32.0328V102.75C55.3088 102.75 51.0891 106.969 51.0891 112.062H40.7581C36.6838 112.062 32.4641 116.282 32.4641 121.375H106.964C106.964 116.282 102.744 112.062 96.633 112.062H88.3391C88.3391 106.969 84.1194 102.75 79.0266 102.75V32.0328C88.3391 32.0328 94.7414 38.1442 106.819 39.1627L88.3391 74.8121H85.72C84.5559 74.8121 83.6829 75.8307 83.8284 76.9947C85.4289 86.3072 97.2151 93.4371 111.62 93.4371C126.026 93.4371 137.812 86.3072 139.412 76.9947C139.558 75.8307 138.685 74.8121 137.521 74.8121ZM41.7766 74.8121H13.8391L27.8079 48.6207L41.7766 74.8121ZM97.6516 74.8121L111.62 48.6207L125.589 74.8121H97.6516Z" fill="#4C00FF"/>
</svg>
