<svg width="88" height="127" viewBox="0 0 88 127" fill="none" xmlns="http://www.w3.org/2000/svg">
<path d="M68.0198 126.138H4.70098C2.87494 126.138 1.40186 124.664 1.40186 122.838V3.79913C1.40186 1.99624 2.87711 0.5 4.70098 0.5H68.0198C69.8436 0.5 71.3189 1.99624 71.3189 3.79913V122.838C71.3189 124.664 69.8458 126.138 68.0198 126.138Z" fill="black" stroke="#0077B6"/>
<path d="M5.20117 110.941V10.6309H67.5199V110.941H5.20117Z" fill="#0077B6" stroke="#0077B6"/>
<path d="M43.8828 5.83256H28.6863C28.2721 5.83256 27.9199 5.49273 27.9199 5.06618C27.9199 4.65196 28.2597 4.2998 28.6863 4.2998H43.8828C44.297 4.2998 44.6492 4.63963 44.6492 5.06618C44.6492 5.49921 44.3158 5.83256 43.8828 5.83256Z" fill="#AAAAAA" stroke="#0077B6"/>
<path d="M43.9587 118.54H28.7622C28.348 118.54 27.9958 118.2 27.9958 117.773C27.9958 117.347 28.348 117.007 28.7622 117.007H43.9587C44.3918 117.007 44.7251 117.34 44.7251 117.773C44.7251 118.206 44.3918 118.54 43.9587 118.54Z" fill="#AAAAAA" stroke="#0077B6"/>
<path d="M83.1655 81.5098H30.9655C28.6329 81.5098 26.7292 79.6061 26.7292 77.2736V44.0439C26.7292 41.7113 28.6329 39.8076 30.9655 39.8076H83.1655C85.4981 39.8076 87.4017 41.7113 87.4017 44.0439V77.2482C87.4017 79.6079 85.4963 81.5098 83.1655 81.5098Z" fill="white" stroke="#0077B6"/>
<path d="M51.3623 77.7734H73.1679V95.204L51.3623 77.7734Z" fill="white" stroke="#0077B6"/>
<path d="M55.1975 57.7792V54.043H58.9338V57.7792H55.1975Z" fill="#0077B6" stroke="#0077B6"/>
<path d="M45.6997 57.7792V54.043H49.4359V57.7792H45.6997Z" fill="#0077B6" stroke="#0077B6"/>
<path d="M64.6702 57.7792V54.043H68.4064V57.7792H64.6702Z" fill="#0077B6" stroke="#0077B6"/>
<path d="M74.168 57.7792V54.043H77.9042V57.7792H74.168Z" fill="#0077B6" stroke="#0077B6"/>
<path d="M55.1975 67.2763V63.54H58.9338V67.2763H55.1975Z" fill="#0077B6" stroke="#0077B6"/>
<path d="M64.6702 67.2763V63.54H68.4064V67.2763H64.6702Z" fill="#0077B6" stroke="#0077B6"/>
<path d="M74.168 67.2763V63.54H77.9042V67.2763H74.168Z" fill="#0077B6" stroke="#0077B6"/>
<path d="M36.2019 57.7792V54.043H39.9381V57.7792H36.2019Z" fill="white" stroke="#0077B6"/>
</svg>
