<svg width="78" height="113" viewBox="0 0 78 113" fill="none" xmlns="http://www.w3.org/2000/svg">
<path d="M59.625 112H3.375C1.78364 112 0.5 110.716 0.5 109.125V3.375C0.5 1.80397 1.78581 0.5 3.375 0.5H59.625C61.2142 0.5 62.5 1.80397 62.5 3.375V109.125C62.5 110.716 61.2164 112 59.625 112Z" fill="black" stroke="#0077B6"/>
<path d="M3.875 98.5V9.5H59.125V98.5H3.875Z" fill="#0077B6" stroke="#0077B6"/>
<path d="M38.1826 5.125H24.6826C24.3447 5.125 24.0576 4.84738 24.0576 4.5C24.0576 4.16212 24.3352 3.875 24.6826 3.875H38.1826C38.5205 3.875 38.8076 4.15262 38.8076 4.5C38.8076 4.85386 38.5365 5.125 38.1826 5.125Z" fill="#AAAAAA" stroke="#0077B6"/>
<path d="M38.25 105.25H24.75C24.4121 105.25 24.125 104.972 24.125 104.625C24.125 104.278 24.4121 104 24.75 104H38.25C38.6039 104 38.875 104.271 38.875 104.625C38.875 104.979 38.6039 105.25 38.25 105.25Z" fill="#AAAAAA" stroke="#0077B6"/>
<path d="M73.08 72.3549H26.7075C24.6661 72.3549 23 70.6888 23 68.6474V39.1274C23 37.0861 24.6661 35.4199 26.7075 35.4199H73.08C75.1214 35.4199 76.7875 37.0861 76.7875 39.1274V68.6249C76.7875 70.6905 75.1196 72.3549 73.08 72.3549Z" fill="white" stroke="#0077B6"/>
<path d="M44.9863 69.1475H64.1426V84.4602L44.9863 69.1475Z" fill="white" stroke="#0077B6"/>
<path d="M48.29 51.2729V48.0654H51.4975V51.2729H48.29Z" fill="#0077B6" stroke="#0077B6"/>
<path d="M39.8525 51.2729V48.0654H43.06V51.2729H39.8525Z" fill="#0077B6" stroke="#0077B6"/>
<path d="M56.7051 51.2729V48.0654H59.9126V51.2729H56.7051Z" fill="#0077B6" stroke="#0077B6"/>
<path d="M65.1426 51.2729V48.0654H68.3501V51.2729H65.1426Z" fill="#0077B6" stroke="#0077B6"/>
<path d="M48.29 59.7104V56.5029H51.4975V59.7104H48.29Z" fill="#0077B6" stroke="#0077B6"/>
<path d="M56.7051 59.7104V56.5029H59.9126V59.7104H56.7051Z" fill="#0077B6" stroke="#0077B6"/>
<path d="M65.1426 59.7104V56.5029H68.3501V59.7104H65.1426Z" fill="#0077B6" stroke="#0077B6"/>
<path d="M31.415 51.2729V48.0654H34.6225V51.2729H31.415Z" fill="white" stroke="#0077B6"/>
</svg>
