<svg width="40" height="40" viewBox="0 0 40 40" fill="none" xmlns="http://www.w3.org/2000/svg">
<g clip-path="url(#clip0_348_21)">
<path d="M2.7737 18.2683C1.69055 18.2683 0.812487 19.1463 0.8125 20.2295C0.812487 21.3127 1.69055 22.1907 2.7737 22.1907L18.2683 22.1906L18.2684 37.6853C18.2682 38.7684 19.1464 39.6464 20.2295 39.6465C21.3127 39.6465 22.1907 38.7685 22.1907 37.6853V22.1907L37.6853 22.1906C38.7684 22.1907 39.6465 21.3127 39.6465 20.2295C39.6465 19.1463 38.7684 18.2682 37.6853 18.2684L22.1907 18.2682V2.7737C22.1907 1.69054 21.3127 0.812472 20.2295 0.8125C19.1464 0.812514 18.2682 1.69058 18.2684 2.77361L18.2683 18.2684L2.7737 18.2683Z" fill="#0077B6"/>
</g>
<defs>
<clipPath id="clip0_348_21">
<rect width="40" height="40" fill="white"/>
</clipPath>
</defs>
</svg>
