<svg width="189" height="121" viewBox="0 0 189 121" fill="none" xmlns="http://www.w3.org/2000/svg">
<path d="M2.98444 0.147885C2.20257 0.357654 1.57327 0.739051 1.0107 1.36836C0.352793 2.09301 0.0953494 2.75092 0.0381398 3.8093L0 4.61977L14.0354 60.1608C30.3497 124.77 28.4999 117.494 28.786 118.076C29.1006 118.705 29.8825 119.468 30.55 119.792C31.7228 120.364 27.556 120.736 78.444 115.53C103.826 112.927 124.851 110.753 125.165 110.706C127.358 110.324 128.903 108.131 128.445 106.052C128.359 105.7 126.443 100.37 124.174 94.2101L120.054 83.0065L135.911 67.1499L151.768 51.2933L151.825 54.1252C151.873 56.7282 151.892 57.0047 152.082 57.4815C152.483 58.5017 153.045 59.0834 154.075 59.5601C154.819 59.9129 155.963 59.9224 156.821 59.5887C157.594 59.2931 158.471 58.4064 158.785 57.6245C159.005 57.081 159.014 56.938 159.043 54.1347L159.071 51.198L173.078 38.9456C180.773 32.2139 187.228 26.512 187.419 26.2927C188.029 25.5776 188.334 24.4143 188.144 23.4513C187.962 22.4978 187.714 22.1545 185.989 20.4001L184.349 18.7315L184.625 18.3978C185.588 17.2631 185.779 15.6612 185.13 14.1738C184.892 13.6303 184.425 13.1345 178.904 7.58514C175.624 4.29559 172.687 1.4065 172.382 1.17766C171.343 0.405328 169.951 0.17649 168.769 0.576957C168.444 0.681842 168.044 0.863006 167.882 0.96789C167.443 1.26347 159.663 9.04399 159.338 9.5112C158.309 10.97 158.49 13.0963 159.748 14.4503L160.015 14.7363L159.739 15.0033L159.462 15.2703L158.938 14.8412C157.698 13.8305 156.039 13.6589 154.561 14.4026C154.275 14.5456 147.658 21.0866 132.488 36.2567C112.15 56.5852 110.815 57.8915 110.739 57.6722C110.691 57.5482 106.114 45.1242 100.575 30.059C95.0443 14.9938 90.4199 2.47441 90.3055 2.23604C90.0194 1.63534 89.2852 0.853471 88.7227 0.538818C87.6357 -0.0523489 91.1636 -0.00467421 45.3101 0.00486073C9.0868 0.00486073 3.43258 0.0239306 2.98444 0.147885ZM94.2911 36.066L104.608 64.1178L102.539 66.2155C101.395 67.3692 100.336 68.4848 100.174 68.6946C99.6592 69.3811 90.6296 86.3056 90.4485 86.9063C90.2673 87.5452 90.3055 88.5559 90.5343 89.2042L90.6773 89.5952L88.3985 91.874C86.4819 93.781 86.0624 94.2482 85.8336 94.7345C85.3282 95.7929 85.3091 97.1373 85.7859 98.148C86.5392 99.7499 88.3031 100.694 89.9908 100.417C91.1922 100.217 91.4783 100.007 93.9955 97.5187L96.2934 95.2303L96.8083 95.3829C97.4757 95.5831 98.6295 95.5736 99.2302 95.3638C99.4971 95.2685 102.768 93.5522 106.505 91.5403C110.243 89.5284 113.313 87.898 113.332 87.917C113.39 87.9742 119.015 103.287 118.987 103.316C118.977 103.325 100.26 105.242 77.3951 107.588C54.5303 109.924 35.7179 111.859 35.5844 111.878L35.346 111.926L24.0185 67.0927C17.7922 42.4354 11.8805 19.0557 10.8984 15.1273L9.09634 8.00468H46.5305H83.9743L94.2911 36.066ZM175.033 16.7768L174.175 17.635L171.219 14.6791L168.263 11.7233L169.121 10.8652L169.979 10.007L172.935 12.9628L175.891 15.9187L175.033 16.7768ZM138.686 53.124L115.01 76.7993L112.055 73.8435L109.099 70.8876L132.765 47.2219L156.44 23.5466L159.396 26.5025L162.351 29.4583L138.686 53.124ZM179.371 23.8708C179.371 23.8899 179.123 24.1092 178.828 24.3666L178.275 24.8148L178.752 24.3285C179.162 23.8994 179.371 23.7373 179.371 23.8708ZM171.686 26.3499C172.43 26.9506 173.126 27.1985 174.127 27.2081C174.795 27.2081 175.042 27.1699 175.548 26.9601C175.882 26.8171 176.101 26.7599 176.025 26.8267C175.748 27.0841 172.068 30.2783 171.915 30.3927C171.772 30.5071 171.762 30.4881 171.858 30.1544C172.125 29.1723 171.715 27.6657 170.933 26.7981L170.571 26.3976L170.79 26.1687C170.914 26.0353 171.047 25.9304 171.095 25.9304C171.143 25.9304 171.41 26.1211 171.686 26.3499ZM108.336 81.4237C108.336 81.4905 99.9357 86.0196 99.8976 85.9814C99.8881 85.9624 100.832 84.1698 102.014 81.9958C103.187 79.8219 104.217 77.9149 104.293 77.7623L104.446 77.4858L106.391 79.4309C107.459 80.4988 108.336 81.3951 108.336 81.4237Z" fill="#4C00FF"/>
<path d="M50.1918 18.9698C32.7238 19.4084 24.4761 19.6467 24.1614 19.7326C22.7503 20.0854 21.6823 21.2677 21.4821 22.6979C21.1961 24.8242 22.7026 26.6359 24.8575 26.7598C25.277 26.7789 37.682 26.5024 52.4135 26.1305C74.5917 25.5775 79.2925 25.4345 79.6834 25.32C80.656 25.0245 81.4664 24.3093 81.9146 23.3558C82.1339 22.8982 82.1625 22.7075 82.1625 21.8779C82.1625 21.0484 82.1339 20.8577 81.905 20.3809C81.5523 19.6277 80.9706 19.027 80.2174 18.6551L79.5976 18.35L77.6811 18.3309C76.6322 18.3309 64.2654 18.6074 50.1918 18.9698Z" fill="#4C00FF"/>
<path d="M55.989 35.6183C41.5436 36.629 29.4533 37.4967 29.1291 37.5443C28.29 37.6778 27.7084 37.9829 27.0886 38.6218C25.7156 40.0139 25.7251 42.2069 27.1172 43.599C27.6225 44.1044 28.3377 44.4762 29.0623 44.6097C29.4151 44.6765 36.1086 44.2379 56.6088 42.8076C71.5024 41.7588 83.8787 40.8816 84.1171 40.853C85.2422 40.7004 86.4627 39.7278 86.8918 38.6313C87.3208 37.5253 87.1111 36.0283 86.4055 35.132C85.6141 34.1404 84.6987 33.7399 83.2399 33.759C82.6964 33.7685 70.4344 34.598 55.989 35.6183Z" fill="#4C00FF"/>
<path d="M60.6517 53.3906C45.2528 54.8399 32.4855 56.0604 32.2853 56.0985C31.6464 56.2129 30.9313 56.6039 30.4355 57.1092C28.9576 58.5871 29.072 61.0376 30.6929 62.3916C31.1506 62.7825 32.0087 63.1258 32.6094 63.183C33.4104 63.2497 89.7905 57.9197 90.3817 57.7194C91.0205 57.5097 91.3638 57.2808 91.8787 56.7278C94.024 54.4394 92.2982 50.6731 89.1231 50.7303C88.8656 50.7399 76.0506 51.9317 60.6517 53.3906Z" fill="#4C00FF"/>
</svg>
