<svg width="125" height="125" viewBox="0 0 125 125" fill="none" xmlns="http://www.w3.org/2000/svg">
<path d="M62.7152 0C97.0133 0 124.815 27.8019 124.815 62.1C124.815 96.3981 97.0133 124.2 62.7152 124.2C28.4171 124.2 0.615234 96.3981 0.615234 62.1C0.615234 27.8019 28.4171 0 62.7152 0ZM84.137 87.4125C85.2791 83.9079 90.6305 48.9807 91.292 42.0984C91.4918 40.014 90.833 38.6289 89.5424 38.0106C87.9818 37.26 85.6706 37.6353 82.9895 38.6019C79.3121 39.9276 32.2997 59.8887 29.5835 61.0443C27.0077 62.1378 24.5723 63.3312 24.5723 65.0592C24.5723 66.2742 25.2932 66.9573 27.2804 67.6674C29.3486 68.4045 34.5569 69.984 37.6322 70.8318C40.5941 71.6499 43.9664 70.9398 45.8564 69.7653C47.8598 68.5206 70.9799 53.0496 72.6404 51.6942C74.2982 50.3388 75.6212 52.0749 74.2658 53.433C72.9104 54.7884 57.0398 70.1919 54.9473 72.3249C52.4066 74.9142 54.2102 77.598 55.9139 78.6726C57.8606 79.8984 71.8601 89.289 73.9688 90.7956C76.0775 92.3022 78.2159 92.9853 80.1734 92.9853C82.1309 92.9853 83.1623 90.4068 84.137 87.4125Z" fill="#0077B6"/>
</svg>
