<svg width="22" height="22" viewBox="0 0 22 22" fill="none" xmlns="http://www.w3.org/2000/svg">
<path d="M13.9523 6.00488H5.29898C5.04232 6.00488 4.80398 6.01405 4.58398 6.02322C2.41148 6.15155 1.83398 6.94905 1.83398 9.42407V9.95573C1.83398 10.4599 2.24648 10.8724 2.75065 10.8724H16.5006C17.0048 10.8724 17.4173 10.4599 17.4173 9.95573V9.42407C17.4173 6.69238 16.7206 6.00488 13.9523 6.00488Z" fill="white"/>
<path d="M2.75065 12.2461C2.24648 12.2461 1.83398 12.6586 1.83398 13.1628V15.8303C1.83398 18.5619 2.53065 19.2494 5.29898 19.2494H13.9523C16.6748 19.2494 17.3898 18.5894 17.4173 15.9769V13.1628C17.4173 12.6586 17.0048 12.2461 16.5006 12.2461H2.75065ZM6.38065 17.0128H4.81315C4.43732 17.0128 4.12565 16.7011 4.12565 16.3253C4.12565 15.9494 4.43732 15.6378 4.81315 15.6378H6.38982C6.76565 15.6378 7.07732 15.9494 7.07732 16.3253C7.07732 16.7011 6.76565 17.0128 6.38065 17.0128ZM11.5048 17.0128H8.35148C7.97565 17.0128 7.66398 16.7011 7.66398 16.3253C7.66398 15.9494 7.97565 15.6378 8.35148 15.6378H11.5048C11.8807 15.6378 12.1923 15.9494 12.1923 16.3253C12.1923 16.7011 11.8898 17.0128 11.5048 17.0128Z" fill="white"/>
<path d="M20.1685 12.2205V7.4171C20.1685 4.54794 18.5276 3.30127 16.0526 3.30127H7.86677C7.1701 3.30127 6.54677 3.4021 5.99677 3.61294C5.56593 3.76877 5.18093 3.99794 4.86927 4.30044C4.70427 4.45627 4.8326 4.71294 5.07093 4.71294H15.0351C17.0976 4.71294 18.766 6.38127 18.766 8.44377V15.0163C18.766 15.2455 19.0135 15.3738 19.1785 15.2088C19.811 14.5396 20.1685 13.5588 20.1685 12.2205Z" fill="white"/>
</svg>
