<svg width="51" height="38" viewBox="0 0 51 38" fill="none" xmlns="http://www.w3.org/2000/svg">
<path d="M49.5764 6.53125C49.1049 3.91968 46.8586 2.01782 44.2518 1.42407C40.3507 0.59375 33.131 0 25.3197 0C17.513 0 10.1778 0.59375 6.27216 1.42407C3.66993 2.01782 1.41898 3.79907 0.947526 6.53125C0.471452 9.5 0 13.6562 0 19C0 24.3438 0.471452 28.5 1.06308 31.4688C1.53915 34.0803 3.78548 35.9822 6.38771 36.5759C10.5291 37.4062 17.6286 38 25.4399 38C33.2512 38 40.3507 37.4062 44.4921 36.5759C47.0943 35.9822 49.3407 34.2009 49.8167 31.4688C50.2882 28.5 50.8798 24.2231 51 19C50.7597 13.6562 50.168 9.5 49.5764 6.53125ZM18.932 27.3125V10.6875L33.3668 19L18.932 27.3125Z" fill="#0077B6"/>
</svg>
