<?xml version="1.0" standalone="no"?>
<!DOCTYPE svg PUBLIC "-//W3C//DTD SVG 20010904//EN"
 "http://www.w3.org/TR/2001/REC-SVG-20010904/DTD/svg10.dtd">
<svg version="1.0" xmlns="http://www.w3.org/2000/svg"
 width="321.000000pt" height="273.000000pt" viewBox="0 0 321.000000 273.000000"
 preserveAspectRatio="xMidYMid meet">

<g transform="translate(0.000000,273.000000) scale(0.100000,-0.100000)"
fill="#000000" stroke="none">
<path d="M1545 2644 c-84 -29 -137 -131 -114 -217 6 -23 20 -54 30 -69 17 -24
19 -42 17 -145 l-3 -118 -360 -5 c-344 -5 -362 -6 -408 -27 -103 -48 -191
-161 -216 -281 -7 -36 -11 -260 -11 -694 0 -550 2 -649 16 -702 37 -146 134
-243 280 -280 54 -14 164 -16 834 -16 670 0 780 2 834 16 146 37 243 134 280
280 14 53 16 152 16 702 0 434 -4 658 -11 694 -25 120 -113 233 -216 281 -46
21 -64 22 -408 27 l-360 5 -3 118 c-2 103 0 121 17 145 72 102 28 247 -86 286
-56 19 -75 19 -128 0z m858 -809 c19 -8 45 -26 56 -41 21 -26 21 -32 21 -701
l0 -675 -34 -34 -34 -34 -802 0 -802 0 -34 34 -34 34 0 675 c0 670 0 674 21
701 44 56 21 54 845 55 650 1 767 -1 797 -14z"/>
<path d="M1155 1263 c-92 -48 -129 -147 -90 -240 20 -48 41 -71 87 -94 63 -32
157 -19 212 29 29 26 56 92 56 140 0 45 -25 106 -57 134 -51 46 -151 61 -208
31z"/>
<path d="M1910 1264 c-45 -20 -68 -41 -91 -86 -34 -66 -16 -173 37 -220 73
-65 203 -61 266 9 27 29 48 88 48 133 0 129 -138 217 -260 164z"/>
<path d="M117 1464 c-4 -4 -7 -173 -7 -376 l0 -369 123 3 122 3 0 370 0 370
-116 3 c-63 1 -118 -1 -122 -4z"/>
<path d="M2865 1458 c-3 -7 -4 -175 -3 -373 l3 -360 123 -3 122 -3 -2 373 -3
373 -118 3 c-88 2 -119 -1 -122 -10z"/>
</g>
</svg>
