<svg width="171" height="172" viewBox="0 0 171 172" fill="none" xmlns="http://www.w3.org/2000/svg">
<g clip-path="url(#clip0_304_235)">
<path d="M87.6004 2.36667C84.9337 5.03334 84.667 10.2333 87.067 12.2333C87.867 12.9 91.7337 13.9667 95.3337 14.5C106.267 16.1 121.6 21.4333 128.8 26.3667C141.6 35.0333 149.467 48.5 152.934 67.5667C154 73.5667 155.2 79.8333 155.467 81.5667C156.267 85.5667 161.334 87.9667 165.2 85.9667C167.6 84.6333 168 83.3 168 74.7667C167.867 37.7 136.667 4.1 99.3337 0.900005C91.467 0.233338 89.467 0.500005 87.6004 2.36667Z" fill="white"/>
<path d="M27.0673 9.83334C20.134 11.4333 10.8007 17.7 6.93398 23.4333C3.86732 28.2333 3.33398 30.3667 3.33398 39.0333C3.33398 47.9667 4.00065 50.5 8.53398 60.5C30.134 107.433 62.8007 140.367 110.534 163.833C125.467 171.167 130.001 172.1 138.401 169.3C155.734 163.567 168.001 143.167 160.667 132.1C155.867 124.767 130.667 107.567 122.934 106.367C116.667 105.433 113.601 106.767 105.067 114.633C101.601 117.833 98.0007 120.5 96.934 120.5C92.134 120.5 77.4673 111.3 69.2007 103.167C60.2673 94.5 52.0007 80.6333 52.0007 74.6333C52.0007 73.3 55.334 69.0333 59.334 65.1667C66.0007 58.6333 66.6673 57.5667 66.6673 52.2333C66.6673 45.5667 61.2007 35.5667 49.8673 21.7C40.8007 10.6333 35.8673 7.96667 27.0673 9.83334Z" fill="white"/>
<path d="M90.9346 23.9667C86.8013 26.7667 87.4679 32.5 92.0013 34.7667C93.8679 35.7 99.7346 37.7 105.068 39.1667C118.801 43.0333 125.735 49.5667 129.201 61.7C130.668 66.5 132.135 72.7667 132.668 75.4333C133.601 81.7 137.468 84.1 142.268 81.9667C145.468 80.5 145.601 79.9667 145.068 70.1C144.401 57.1667 140.268 47.5667 131.201 38.6333C124.001 31.5667 112.935 25.4333 104.668 23.9667C101.735 23.4333 98.1346 22.7667 96.6679 22.3667C95.2013 21.9667 92.6679 22.7667 90.9346 23.9667Z" fill="white"/>
<path d="M93.6014 46.6333C90.4014 48.9 89.7347 54.1 92.4014 56.1C93.2014 56.7667 96.8014 58.3667 100.401 59.7C106.935 62.1 110.668 66.7667 110.668 72.5C110.668 75.5667 115.068 80.5 117.868 80.5C123.201 80.5 125.868 70.7667 122.801 62.7667C120.668 57.4333 113.068 49.5667 107.335 47.0333C100.801 43.9667 97.468 43.8333 93.6014 46.6333Z" fill="white"/>
</g>
<defs>
<clipPath id="clip0_304_235">
<rect width="170.667" height="170.667" fill="white" transform="translate(0 0.5)"/>
</clipPath>
</defs>
</svg>
