<?xml version="1.0" standalone="no"?>
<!DOCTYPE svg PUBLIC "-//W3C//DTD SVG 20010904//EN"
 "http://www.w3.org/TR/2001/REC-SVG-20010904/DTD/svg10.dtd">
<svg version="1.0" xmlns="http://www.w3.org/2000/svg"
 width="128.000000pt" height="128.000000pt" viewBox="0 0 128.000000 128.000000"
 preserveAspectRatio="xMidYMid meet">

<g transform="translate(0.000000,128.000000) scale(0.100000,-0.100000)"
fill="#000000" stroke="none">
<path d="M657 1266 c-20 -20 -22 -59 -4 -74 6 -5 35 -13 62 -17 82 -12 197
-52 251 -89 96 -65 155 -166 181 -309 8 -45 17 -92 19 -105 6 -30 44 -48 73
-33 18 10 21 20 21 84 -1 278 -235 530 -515 554 -59 5 -74 3 -88 -11z"/>
<path d="M203 1210 c-52 -12 -122 -59 -151 -102 -23 -36 -27 -52 -27 -117 0
-67 5 -86 39 -161 162 -352 407 -599 765 -775 112 -55 146 -62 209 -41 130 43
222 196 167 279 -36 55 -225 184 -283 193 -47 7 -70 -3 -134 -62 -26 -24 -53
-44 -61 -44 -36 0 -146 69 -208 130 -67 65 -129 169 -129 214 0 10 25 42 55
71 50 49 55 57 55 97 0 50 -41 125 -126 229 -68 83 -105 103 -171 89z"/>
<path d="M682 1104 c-31 -21 -26 -64 8 -81 14 -7 58 -22 98 -33 103 -29 155
-78 181 -169 11 -36 22 -83 26 -103 7 -47 36 -65 72 -49 24 11 25 15 21 89 -5
97 -36 169 -104 236 -54 53 -137 99 -199 110 -22 4 -49 9 -60 12 -11 3 -30 -3
-43 -12z"/>
<path d="M702 934 c-24 -17 -29 -56 -9 -71 6 -5 33 -17 60 -27 49 -18 77 -53
77 -96 0 -23 33 -60 54 -60 40 0 60 73 37 133 -16 40 -73 99 -116 118 -49 23
-74 24 -103 3z"/>
</g>
</svg>
