<svg width="206" height="206" viewBox="0 0 206 206" fill="none" xmlns="http://www.w3.org/2000/svg">
<path d="M44.8006 10.6668C42.6672 11.3335 39.4672 13.2002 37.7339 14.9335C30.4006 21.7335 30.6672 19.2002 30.6672 103.067V180.933L33.7339 185.333C35.3339 187.733 38.4006 191.067 40.4006 192.533C44.1339 195.333 45.4672 195.333 102.667 195.333C159.867 195.333 161.201 195.333 164.934 192.533C166.934 191.067 170.001 187.733 171.734 185.333L174.667 180.933V103.067C174.667 18.0002 174.934 21.2002 166.801 14.2668C162.134 10.4002 154.001 8.53351 151.201 10.8002C149.734 12.0002 149.334 17.7335 149.334 40.0002C149.334 55.3335 148.934 68.6668 148.534 69.8668C147.201 73.3335 142.534 72.2668 134.001 66.6668C129.601 63.7335 125.601 61.3335 125.067 61.3335C124.667 61.3335 120.534 63.8668 116.001 66.9335C103.467 75.7335 103.467 75.7335 102.934 41.3335C102.801 23.0668 102.134 12.2668 101.201 11.0668C100.001 9.73351 93.8672 9.33351 74.1339 9.46684C60.1339 9.46684 46.9339 10.1335 44.8006 10.6668ZM140.134 114.667C141.467 115.467 142.667 117.2 142.667 118.667C142.667 120.134 141.467 121.867 140.134 122.667C136.667 124.534 68.6672 124.534 65.2006 122.667C62.0006 120.934 61.8672 116.534 65.0672 114.8C68.1339 112.934 136.667 112.934 140.134 114.667ZM140.134 138.667C142.934 140.267 143.467 144 141.067 146.4C138.934 148.533 69.0672 148.667 65.2006 146.667C61.7339 144.8 62.0006 140.133 65.7339 138.667C70.0006 136.933 136.934 136.933 140.134 138.667Z" fill="white"/>
</svg>
