<?xml version="1.0" standalone="no"?>
<!DOCTYPE svg PUBLIC "-//W3C//DTD SVG 20010904//EN"
 "http://www.w3.org/TR/2001/REC-SVG-20010904/DTD/svg10.dtd">
<svg version="1.0" xmlns="http://www.w3.org/2000/svg"
 width="154.000000pt" height="154.000000pt" viewBox="0 0 154.000000 154.000000"
 preserveAspectRatio="xMidYMid meet">

<g transform="translate(0.000000,154.000000) scale(0.100000,-0.100000)"
fill="#000000" stroke="none">
<path d="M336 1460 c-16 -5 -40 -19 -53 -32 -55 -51 -53 -32 -53 -661 l0 -584
23 -33 c12 -18 35 -43 50 -54 28 -21 38 -21 467 -21 429 0 439 0 467 21 15 11
38 36 51 54 l22 33 0 584 c0 638 2 614 -59 666 -35 29 -96 43 -117 26 -11 -9
-14 -52 -14 -219 0 -115 -3 -215 -6 -224 -10 -26 -45 -18 -109 24 -33 22 -63
40 -67 40 -3 0 -34 -19 -68 -42 -94 -66 -94 -66 -98 192 -1 137 -6 218 -13
227 -9 10 -55 13 -203 12 -105 0 -204 -5 -220 -9z m715 -780 c10 -6 19 -19 19
-30 0 -11 -9 -24 -19 -30 -26 -14 -536 -14 -562 0 -24 13 -25 46 -1 59 23 14
537 14 563 1z m0 -180 c21 -12 25 -40 7 -58 -16 -16 -540 -17 -569 -2 -26 14
-24 49 4 60 32 13 534 13 558 0z"/>
</g>
</svg>
