<svg width="20" height="27" viewBox="0 0 20 27" fill="none" xmlns="http://www.w3.org/2000/svg">
<path d="M19.707 7.31302L13.207 0.81302C13.019 0.62502 12.765 0.52002 12.5 0.52002H2C0.895 0.52002 0 1.41502 0 2.52002V24.52C0 25.625 0.895 26.52 2 26.52H18C19.105 26.52 20 25.625 20 24.52V8.02002C20 7.75502 19.895 7.50102 19.707 7.31302ZM13 19.52H5C4.448 19.52 4 19.072 4 18.52C4 17.968 4.448 17.52 5 17.52H13C13.552 17.52 14 17.968 14 18.52C14 19.072 13.552 19.52 13 19.52ZM15 15.52H5C4.448 15.52 4 15.072 4 14.52C4 13.968 4.448 13.52 5 13.52H15C15.552 13.52 16 13.968 16 14.52C16 15.072 15.552 15.52 15 15.52ZM13 8.52002C12.448 8.52002 12 8.07202 12 7.52002V2.42402L18.096 8.52002H13Z" fill="white"/>
</svg>
