<svg width="134" height="134" viewBox="0 0 134 134" fill="none" xmlns="http://www.w3.org/2000/svg">
<path d="M53.334 13.4332V21.1665L66.934 34.7665L80.6673 48.4998H96.2673C111.067 48.4998 112.001 48.6332 112.001 51.1665C112.001 53.6998 111.067 53.8332 98.6673 53.8332H85.334V59.1665V64.4998H93.334C100.401 64.4998 101.334 64.7665 101.334 67.1665C101.334 69.5665 100.401 69.8332 93.334 69.8332H85.334V75.1665V80.4998H98.6673C111.067 80.4998 112.001 80.6332 112.001 83.1665C112.001 85.6998 111.067 85.8332 98.6673 85.8332H85.334V96.4998V107.167H106.667H128.001V70.7665V34.4998L113.601 20.0998L99.334 5.83317H76.2673H53.334V13.4332ZM110.667 23.8332L122.001 35.1665H110.267H98.6673V23.8332C98.6673 17.5665 98.8007 12.4998 99.0673 12.4998C99.2007 12.4998 104.401 17.5665 110.667 23.8332Z" fill="white"/>
<path d="M5.33398 77.8333V128.5H42.6673H80.0007V92.1V55.8333L65.6007 41.4333L51.334 27.1667H28.2673H5.33398V77.8333ZM62.6673 45.1667L74.0007 56.5H62.2673H50.6673V45.1667C50.6673 38.9 50.8007 33.8333 51.0673 33.8333C51.2007 33.8333 56.4007 38.9 62.6673 45.1667ZM64.0007 72.5C64.0007 75.0333 63.0673 75.1667 42.6673 75.1667C22.2673 75.1667 21.334 75.0333 21.334 72.5C21.334 69.9667 22.2673 69.8333 42.6673 69.8333C63.0673 69.8333 64.0007 69.9667 64.0007 72.5ZM53.334 88.5C53.334 91.0333 52.4007 91.1667 37.334 91.1667C22.2673 91.1667 21.334 91.0333 21.334 88.5C21.334 85.9667 22.2673 85.8333 37.334 85.8333C52.4007 85.8333 53.334 85.9667 53.334 88.5ZM64.0007 104.5C64.0007 107.033 63.0673 107.167 42.6673 107.167C22.2673 107.167 21.334 107.033 21.334 104.5C21.334 101.967 22.2673 101.833 42.6673 101.833C63.0673 101.833 64.0007 101.967 64.0007 104.5Z" fill="white"/>
</svg>
