<?xml version="1.0" standalone="no"?>
<!DOCTYPE svg PUBLIC "-//W3C//DTD SVG 20010904//EN"
 "http://www.w3.org/TR/2001/REC-SVG-20010904/DTD/svg10.dtd">
<svg version="1.0" xmlns="http://www.w3.org/2000/svg"
 width="100.000000pt" height="100.000000pt" viewBox="0 0 100.000000 100.000000"
 preserveAspectRatio="xMidYMid meet">

<g transform="translate(0.000000,100.000000) scale(0.100000,-0.100000)"
fill="#000000" stroke="none">
<path d="M400 903 l0 -58 102 -102 103 -103 117 0 c111 0 118 -1 118 -20 0
-19 -7 -20 -100 -20 l-100 0 0 -40 0 -40 60 0 c53 0 60 -2 60 -20 0 -18 -7
-20 -60 -20 l-60 0 0 -40 0 -40 100 0 c93 0 100 -1 100 -20 0 -19 -7 -20 -100
-20 l-100 0 0 -80 0 -80 160 0 160 0 0 273 0 272 -108 108 -107 107 -173 0
-172 0 0 -57z m430 -78 l85 -85 -88 0 -87 0 0 85 c0 47 1 85 3 85 1 0 40 -38
87 -85z"/>
<path d="M40 420 l0 -380 280 0 280 0 0 273 0 272 -108 108 -107 107 -173 0
-172 0 0 -380z m430 245 l85 -85 -88 0 -87 0 0 85 c0 47 1 85 3 85 1 0 40 -38
87 -85z m10 -205 c0 -19 -7 -20 -160 -20 -153 0 -160 1 -160 20 0 19 7 20 160
20 153 0 160 -1 160 -20z m-80 -120 c0 -19 -7 -20 -120 -20 -113 0 -120 1
-120 20 0 19 7 20 120 20 113 0 120 -1 120 -20z m80 -120 c0 -19 -7 -20 -160
-20 -153 0 -160 1 -160 20 0 19 7 20 160 20 153 0 160 -1 160 -20z"/>
</g>
</svg>
