<svg width="500" height="501" viewBox="0 0 500 501" fill="none" xmlns="http://www.w3.org/2000/svg">
<path d="M120 234.53V234.4V104.39L118.8 103.5H118.7L91.4 83.2998C74.7 70.8998 50.9 71.4998 36.1 86.0998C26.2 95.8998 20 109.5 20 124.6V160.62L120 234.53ZM380 234.4V234.53L480 160.62V124.6C480 109.7 474 96.0998 464.2 86.2998C449.6 71.7298 426.55 70.0198 409.96 82.2698L381.2 103.5L380 104.39V234.4ZM140 249.18L244.06 326.1C247.59 328.71 252.42 328.71 255.95 326.1L360 249.18V119.17L250 200.5L140 119.17V249.18ZM380 259.39V410.5C380 416.02 384.48 420.5 390 420.5H455C468.81 420.5 480 409.31 480 395.5V185.47L380 259.39ZM120 259.39L20 185.47V395.5C20 409.31 31.19 420.5 45 420.5H110C115.52 420.5 120 416.02 120 410.5V259.39Z" fill="white"/>
</svg>
