<svg width="800" height="800" viewBox="0 0 800 800" fill="none" xmlns="http://www.w3.org/2000/svg">
<g clip-path="url(#clip0_343_11)">
<path d="M157.577 800H642.425C662.507 800 678.789 783.719 678.789 763.636V351.515C678.789 331.433 662.507 315.152 642.425 315.152H606.061V206.061C606.061 92.4388 513.623 0 400.001 0C286.379 0 193.94 92.4388 193.94 206.061V315.152H157.577C137.494 315.152 121.213 331.433 121.213 351.515V763.636C121.213 783.719 137.494 800 157.577 800ZM436.364 569.663V618.182C436.364 638.264 420.083 654.545 400.001 654.545C379.918 654.545 363.637 638.264 363.637 618.182V569.663C348.927 558.596 339.395 540.999 339.395 521.212C339.395 487.794 366.583 460.606 400.001 460.606C433.419 460.606 460.607 487.794 460.607 521.212C460.607 540.999 451.075 558.596 436.364 569.663ZM266.667 206.061C266.667 132.541 326.481 72.7273 400.001 72.7273C473.521 72.7273 533.334 132.541 533.334 206.061V315.152H266.667V206.061Z" fill="white"/>
</g>
<defs>
<clipPath id="clip0_343_11">
<rect width="800" height="800" fill="white"/>
</clipPath>
</defs>
</svg>
