<svg width="70" height="70" viewBox="0 0 70 70" fill="none" xmlns="http://www.w3.org/2000/svg">
<path d="M2.66602 9.83333C2.66602 15.5667 3.06602 16.5 5.33268 16.5C7.46602 16.5 7.99935 15.5667 7.99935 12.5C7.99935 8.9 8.39935 8.5 11.9993 8.5C15.066 8.5 15.9993 7.96667 15.9993 5.83333C15.9993 3.56667 15.066 3.16667 9.33268 3.16667H2.66602V9.83333Z" fill="white"/>
<path d="M53.332 5.83333C53.332 7.96667 54.2654 8.5 57.332 8.5C60.932 8.5 61.332 8.9 61.332 12.5C61.332 15.5667 61.8654 16.5 63.9987 16.5C66.2654 16.5 66.6654 15.5667 66.6654 9.83333V3.16667H59.9987C54.2654 3.16667 53.332 3.56667 53.332 5.83333Z" fill="white"/>
<path d="M7.99883 27.1663C4.39883 30.7663 4.39883 39.5663 7.99883 43.1663C13.7322 48.8997 21.3322 44.3663 21.3322 35.1663C21.3322 29.1663 17.7322 24.4997 13.3322 24.4997C11.8655 24.4997 9.46549 25.6997 7.99883 27.1663ZM15.3322 35.2997C15.3322 38.4997 14.6655 39.833 13.3322 39.833C11.1988 39.833 9.99883 34.8997 11.1988 31.5663C12.5322 28.0997 15.3322 30.4997 15.3322 35.2997Z" fill="white"/>
<path d="M29.3327 27.1663C23.5994 32.8997 27.3327 45.833 34.6661 45.833C37.4661 45.833 42.6661 41.433 42.6661 39.1663C42.6661 37.2997 38.2661 37.433 36.3994 39.2997C34.1327 41.5663 31.9994 39.5663 31.9994 35.1663C31.9994 30.7663 34.1327 28.7663 36.3994 31.033C38.2661 32.8997 42.6661 33.033 42.6661 31.1663C42.6661 28.8997 37.4661 24.4997 34.6661 24.4997C33.1994 24.4997 30.7994 25.6997 29.3327 27.1663Z" fill="white"/>
<path d="M48 35.1663C48 44.8997 48.2667 45.833 50.6667 45.833C52.4 45.833 53.3333 44.8997 53.3333 43.1663C53.3333 41.6997 54.1333 40.4997 55.2 40.4997C56.1333 40.4997 57.3333 41.6997 57.7333 43.1663C58.1333 44.7663 59.6 45.833 61.2 45.833C63.6 45.833 63.7333 45.433 62.6667 42.3663C61.7333 40.233 61.7333 38.0997 62.6667 36.4997C66 30.233 61.6 24.4997 53.3333 24.4997H48V35.1663ZM58 32.4997C58 33.5663 56.9333 34.633 55.7333 34.8997C54 35.1663 53.3333 34.4997 53.3333 32.4997C53.3333 30.4997 54 29.833 55.7333 30.0997C56.9333 30.3663 58 31.433 58 32.4997Z" fill="white"/>
<path d="M2.66602 60.4998V67.1665H9.33268C15.066 67.1665 15.9993 66.7665 15.9993 64.4998C15.9993 62.3665 15.066 61.8332 11.9993 61.8332C8.39935 61.8332 7.99935 61.4332 7.99935 57.8332C7.99935 54.7665 7.46602 53.8332 5.33268 53.8332C3.06602 53.8332 2.66602 54.7665 2.66602 60.4998Z" fill="white"/>
<path d="M61.332 57.8332C61.332 61.4332 60.932 61.8332 57.332 61.8332C54.2654 61.8332 53.332 62.3665 53.332 64.4998C53.332 66.7665 54.2654 67.1665 59.9987 67.1665H66.6654V60.4998C66.6654 54.7665 66.2654 53.8332 63.9987 53.8332C61.8654 53.8332 61.332 54.7665 61.332 57.8332Z" fill="white"/>
</svg>
