<?xml version="1.0" standalone="no"?>
<!DOCTYPE svg PUBLIC "-//W3C//DTD SVG 20010904//EN"
 "http://www.w3.org/TR/2001/REC-SVG-20010904/DTD/svg10.dtd">
<svg version="1.0" xmlns="http://www.w3.org/2000/svg"
 width="52.000000pt" height="52.000000pt" viewBox="0 0 52.000000 52.000000"
 preserveAspectRatio="xMidYMid meet">

<g transform="translate(0.000000,52.000000) scale(0.100000,-0.100000)"
fill="#000000" stroke="none">
<path d="M20 450 c0 -43 3 -50 20 -50 16 0 20 7 20 30 0 27 3 30 30 30 23 0
30 4 30 20 0 17 -7 20 -50 20 l-50 0 0 -50z"/>
<path d="M400 480 c0 -16 7 -20 30 -20 27 0 30 -3 30 -30 0 -23 4 -30 20 -30
17 0 20 7 20 50 l0 50 -50 0 c-43 0 -50 -3 -50 -20z"/>
<path d="M60 320 c-27 -27 -27 -93 0 -120 43 -43 100 -9 100 60 0 45 -27 80
-60 80 -11 0 -29 -9 -40 -20z m55 -61 c0 -24 -5 -34 -15 -34 -16 0 -25 37 -16
62 10 26 31 8 31 -28z"/>
<path d="M220 320 c-43 -43 -15 -140 40 -140 21 0 60 33 60 50 0 14 -33 13
-47 -1 -17 -17 -33 -2 -33 31 0 33 16 48 33 31 14 -14 47 -15 47 -1 0 17 -39
50 -60 50 -11 0 -29 -9 -40 -20z"/>
<path d="M360 260 c0 -73 2 -80 20 -80 13 0 20 7 20 20 0 11 6 20 14 20 7 0
16 -9 19 -20 3 -12 14 -20 26 -20 18 0 19 3 11 26 -7 16 -7 32 0 44 25 47 -8
90 -70 90 l-40 0 0 -80z m75 20 c0 -8 -8 -16 -17 -18 -13 -2 -18 3 -18 18 0
15 5 20 18 18 9 -2 17 -10 17 -18z"/>
<path d="M20 70 l0 -50 50 0 c43 0 50 3 50 20 0 16 -7 20 -30 20 -27 0 -30 3
-30 30 0 23 -4 30 -20 30 -17 0 -20 -7 -20 -50z"/>
<path d="M460 90 c0 -27 -3 -30 -30 -30 -23 0 -30 -4 -30 -20 0 -17 7 -20 50
-20 l50 0 0 50 c0 43 -3 50 -20 50 -16 0 -20 -7 -20 -30z"/>
</g>
</svg>
