<?xml version="1.0" encoding="iso-8859-1"?>
<!-- Uploaded to: SVG Repo, www.svgrepo.com, Generator: SVG Repo Mixer Tools -->
<!DOCTYPE svg PUBLIC "-//W3C//DTD SVG 1.1//EN" "http://www.w3.org/Graphics/SVG/1.1/DTD/svg11.dtd">
<svg fill="#000000" height="800px" width="800px" version="1.1" id="Capa_1" xmlns="http://www.w3.org/2000/svg" xmlns:xlink="http://www.w3.org/1999/xlink" 
	 viewBox="0 0 324.989 324.989" xml:space="preserve">
<path d="M315.256,9.832c-0.027-0.027-0.056-0.056-0.083-0.083C308.762,3.462,300.265,0,291.248,0c-9.141,0-17.72,3.543-24.157,9.976
	c-0.067,0.067-0.134,0.137-0.198,0.208l-96.957,106.63L139.131,86.01c-4.355-4.271-10.125-6.622-16.245-6.622
	c-6.207,0-12.033,2.408-16.407,6.781l-50.782,50.765c-1.125,1.125-1.758,2.651-1.758,4.242c0,1.592,0.632,3.118,1.758,4.244
	l2.476,2.476l-56.409,56.39c-1.126,1.125-1.758,2.651-1.758,4.242c0,1.592,0.632,3.118,1.757,4.243l44.184,44.184l0.001,0.002
	c0,0,0.001,0.001,0.002,0.001l66.273,66.274c1.171,1.172,2.707,1.758,4.242,1.758c1.535,0,3.07-0.586,4.242-1.757l56.409-56.391
	l2.466,2.466c1.126,1.126,2.652,1.758,4.243,1.758c1.592,0,3.118-0.633,4.243-1.758l50.766-50.783
	c8.959-8.958,9.029-23.607,0.117-32.694l-30.762-30.763l106.63-96.957c0.071-0.064,0.14-0.13,0.207-0.198
	C328.214,44.72,328.316,23.151,315.256,9.832z M116.466,310.505l-13.602-13.602l23.403-23.394c2.343-2.342,2.344-6.142,0.001-8.485
	c-2.341-2.343-6.141-2.344-8.485-0.001l-23.404,23.395L80.771,274.81l23.212-23.208c2.344-2.343,2.344-6.142,0.001-8.485
	c-2.343-2.343-6.141-2.344-8.485-0.001l-23.213,23.209l-13.609-13.609l23.027-23.019c2.343-2.343,2.344-6.142,0.001-8.485
	c-2.344-2.344-6.142-2.343-8.485-0.001l-23.028,23.02l-13.608-13.608l22.649-22.642c2.343-2.343,2.344-6.142,0.001-8.485
	c-2.343-2.344-6.141-2.343-8.485-0.001l-22.65,22.643l-13.606-13.606l52.163-52.146L168.568,258.42L116.466,310.505z
	 M230.349,210.04l-46.524,46.539L68.425,141.178l46.538-46.523c2.107-2.107,4.921-3.267,7.923-3.267c2.96,0,5.746,1.133,7.803,3.148
	l35.211,35.211l29.355,29.357c0.002,0.002,0.005,0.004,0.008,0.006l35.162,35.164C234.708,198.642,234.675,205.714,230.349,210.04z
	 M306.635,49.334l-106.94,97.238l-21.264-21.264l97.238-106.939C279.83,14.261,285.357,12,291.248,12
	c5.836,0,11.331,2.229,15.48,6.276C315.131,26.889,315.082,40.779,306.635,49.334z"/>
</svg>