<?xml version="1.0" encoding="iso-8859-1"?>
<!-- Uploaded to: SVG Repo, www.svgrepo.com, Generator: SVG Repo Mixer Tools -->
<svg fill="#000000" height="800px" width="800px" version="1.1" id="Layer_1" xmlns="http://www.w3.org/2000/svg" xmlns:xlink="http://www.w3.org/1999/xlink" 
	 viewBox="0 0 503.9 503.9" xml:space="preserve">
<g>
	<g>
		<g>
			<path d="M486.967,109.115V25.18c0-13.883-11.298-25.18-25.18-25.18H201.59H58.901H42.114c-13.883,0-25.18,11.298-25.18,25.18
				v83.934c-4.633,0-8.393,3.752-8.393,8.393v75.541c0,4.642,3.76,8.393,8.393,8.393v16.787h58.754c4.633,0,8.393,3.752,8.393,8.393
				c0,4.642-3.76,8.393-8.393,8.393H16.934v16.787h41.967c4.633,0,8.393,3.752,8.393,8.393c0,4.642-3.76,8.393-8.393,8.393H17.782
				c3.903,19.129,20.858,33.574,41.119,33.574h83.834c10.164,0,19.775,4.432,26.372,12.162c6.597,7.73,9.459,17.92,7.865,27.959
				l-8.964,56.345c-5.531,35.001,9.652,70.748,38.685,91.06c13.539,9.476,29.394,14.21,45.257,14.21s31.727-4.734,45.257-14.21
				c29.033-20.312,44.217-56.06,38.685-91.069l-8.964-56.337c-1.595-10.039,1.267-20.228,7.865-27.959
				c6.597-7.73,16.208-12.162,26.372-12.162h83.834c23.141,0,41.967-18.826,41.967-41.967v-58.754c4.633,0,8.393-3.752,8.393-8.393
				v-75.541C495.36,112.867,491.6,109.115,486.967,109.115z M168.016,72.704c0.059,0.025,0.126,0.034,0.176,0.059
				c1.637,0.764,3.349,1.326,5.095,1.771c0.453,0.126,0.898,0.243,1.36,0.336c1.83,0.386,3.693,0.604,5.582,0.629
				c0.126,0,0.252,0.042,0.378,0.042c0.269,0,0.512-0.076,0.772-0.076c0.747-0.017,1.486,0,2.233-0.076
				c0.52-0.05,1.007-0.227,1.519-0.302c0.923-0.151,1.821-0.327,2.719-0.562c0.764-0.201,1.511-0.428,2.249-0.697
				c1.267-0.436,2.476-0.94,3.66-1.536c0.143-0.076,0.285-0.159,0.42-0.235c9.35-4.919,15.805-14.621,15.805-25.894v-1.2V16.787
				h251.803c4.625,0,8.393,3.76,8.393,8.393v83.934H168.016V72.704z M33.721,25.18c0-4.633,3.769-8.393,8.393-8.393h8.393v48.934
				v1.427c0,13.203,7.73,24.542,18.843,30.023c0.218,0.109,0.42,0.243,0.646,0.344c1.284,0.604,2.636,1.058,4.004,1.486
				c0.831,0.277,1.645,0.579,2.501,0.781c1.041,0.243,2.124,0.353,3.198,0.495c0.873,0.117,1.704,0.361,2.594,0.403
				c0.378,0.017,0.739-0.034,1.108-0.025c0.235,0,0.445,0.067,0.68,0.067c0.688,0,1.351-0.092,2.031-0.134
				c0.512-0.034,1.032-0.05,1.544-0.109c1.091-0.109,2.157-0.302,3.215-0.52c0.487-0.101,0.99-0.176,1.477-0.302
				c0.89-0.227,1.746-0.52,2.602-0.814c0.646-0.218,1.309-0.411,1.947-0.671c0.495-0.21,0.957-0.47,1.444-0.697
				c0.848-0.403,1.712-0.755,2.526-1.225v12.867H33.721V25.18z M251.95,453.246c-18.516,0-33.574-15.058-33.574-33.574
				c0-18.516,15.058-33.574,33.574-33.574s33.574,15.058,33.574,33.574C285.524,438.188,270.466,453.246,251.95,453.246z
				 M478.573,184.656H25.327v-58.754h75.541v8.393c0,18.516,15.058,33.574,33.574,33.574s33.574-15.058,33.574-33.574v-8.393
				h310.557V184.656z"/>
			<path d="M251.95,402.885c-9.258,0-16.787,7.529-16.787,16.787c0,9.258,7.529,16.787,16.787,16.787
				c9.258,0,16.787-7.529,16.787-16.787C268.737,410.414,261.208,402.885,251.95,402.885z"/>
		</g>
	</g>
</g>
</svg>