<svg width="28" height="30" viewBox="0 0 28 30" fill="none" xmlns="http://www.w3.org/2000/svg">
<path d="M25.1285 16.7111C24.6043 16.3189 24.2912 15.6889 24.2912 15.0251C24.2912 14.3613 24.6043 13.7313 25.1277 13.3398L27.5491 11.5285C27.935 11.239 28.0945 10.7297 27.9438 10.2655C27.3205 8.35441 26.3347 6.61136 25.013 5.08357C24.6948 4.71756 24.1817 4.60206 23.7428 4.79856L21.0164 6.02184C20.4224 6.28885 19.7307 6.2506 19.1669 5.91834C18.6038 5.58683 18.226 4.99582 18.1547 4.33655L17.8269 1.28247C17.7747 0.796452 17.4203 0.400441 16.9514 0.302188C15.0423 -0.0960726 13.0363 -0.102823 11.0935 0.294688C10.6215 0.391441 10.2665 0.787452 10.2143 1.27572L9.8894 4.3103C9.8181 4.97032 9.44026 5.56133 8.87572 5.89284C8.31264 6.22435 7.62313 6.2641 7.02698 5.99634L4.28585 4.76631C3.85068 4.56981 3.33612 4.68381 3.01783 5.04907C1.69173 6.57086 0.701572 8.31166 0.0716036 10.2212C-0.0812941 10.6847 0.0774842 11.197 0.464874 11.4872L2.87081 13.2873C3.39566 13.6803 3.70881 14.3103 3.70881 14.9741C3.70881 15.6379 3.39566 16.2679 2.87228 16.6594L0.450907 18.4707C0.0649877 18.7602 -0.0945256 19.2695 0.0561669 19.7337C0.679519 21.6448 1.66527 23.3878 2.98695 24.9156C3.30524 25.2824 3.8198 25.3986 4.25718 25.2006L6.98361 23.9773C7.57756 23.7103 8.26854 23.7486 8.83308 24.0808C9.39616 24.4123 9.77399 25.0034 9.8453 25.6626L10.1731 28.7167C10.2253 29.2027 10.5796 29.5987 11.0486 29.697C12.0145 29.898 13.0069 30 14 30C14.9688 30 15.9465 29.9002 16.9058 29.7037C17.3777 29.607 17.7328 29.211 17.785 28.7227L18.1106 25.6881C18.1819 25.0281 18.5597 24.4371 19.1243 24.1056C19.6874 23.7748 20.3776 23.7358 20.973 24.0021L23.7142 25.2321C24.1508 25.4294 24.6639 25.3154 24.9822 24.9494C26.3083 23.4276 27.2984 21.6868 27.9284 19.7772C28.0813 19.3137 27.9225 18.8014 27.5351 18.5112L25.1285 16.7111ZM14 20.2497C11.1582 20.2497 8.8544 17.8992 8.8544 14.9996C8.8544 12.1 11.1582 9.74945 14 9.74945C16.8418 9.74945 19.1456 12.1 19.1456 14.9996C19.1456 17.8992 16.8418 20.2497 14 20.2497Z" fill="#0077B6"/>
</svg>
