<svg width="17" height="17" viewBox="0 0 17 17" fill="none" xmlns="http://www.w3.org/2000/svg">
<path d="M14.6371 2.62381C14.5864 2.5706 14.5351 2.51787 14.483 2.46567C14.4773 2.45993 14.4709 2.45497 14.465 2.44941C12.8644 0.869682 10.7471 0 8.4959 0C6.22544 0 4.09093 0.884151 2.48555 2.48965C-0.828518 5.80378 -0.828518 11.1963 2.48555 14.5104C4.09099 16.1159 6.2255 17.0001 8.4959 17.0001C10.7663 17.0001 12.9009 16.1159 14.5063 14.5104C17.7761 11.2406 17.8195 5.94769 14.6371 2.62381ZM3.75379 3.75794C5.02046 2.49126 6.70458 1.79365 8.4959 1.79365C9.9728 1.79365 11.3765 2.26825 12.5338 3.14457L3.14006 12.5361C1.15873 9.91041 1.36297 6.14882 3.75379 3.75794Z" fill="#0077B6"/>
</svg>
