<?xml version="1.0" standalone="no"?>
<!DOCTYPE svg PUBLIC "-//W3C//DTD SVG 20010904//EN"
 "http://www.w3.org/TR/2001/REC-SVG-20010904/DTD/svg10.dtd">
<svg version="1.0" xmlns="http://www.w3.org/2000/svg"
 width="100.000000pt" height="100.000000pt" viewBox="0 0 100.000000 100.000000"
 preserveAspectRatio="xMidYMid meet">

<g transform="translate(0.000000,100.000000) scale(0.100000,-0.100000)"
fill="#000000" stroke="none">
<path d="M199 940 c-111 -59 -192 -244 -175 -402 6 -62 38 -149 62 -169 22
-18 17 -37 -26 -88 -41 -48 -48 -65 -30 -76 8 -5 41 26 87 83 17 22 19 23 55
8 21 -9 50 -16 66 -16 46 0 117 29 158 64 33 28 41 31 64 23 15 -6 40 -7 56
-3 28 7 105 79 156 146 l27 35 1 -57 c0 -114 25 -117 125 -14 55 57 81 76 109
81 20 4 39 12 42 17 12 19 -14 31 -52 23 -28 -5 -56 -24 -110 -77 l-73 -70 -3
73 c-3 67 -5 74 -25 77 -17 3 -37 -16 -92 -85 -65 -83 -101 -113 -136 -113
-22 0 -19 9 30 80 44 62 85 167 85 216 0 13 -10 34 -21 45 -44 44 -125 3 -172
-86 -16 -31 -21 -58 -21 -120 -1 -44 3 -93 7 -110 8 -28 5 -32 -44 -65 -43
-29 -61 -35 -105 -35 -83 0 -85 11 -20 108 96 144 155 297 156 400 0 103 -89
155 -181 107z m120 -46 c51 -65 0 -240 -125 -431 l-56 -87 -24 27 c-81 95 -64
323 33 437 70 82 134 102 172 54z m234 -221 c-2 -47 -48 -151 -87 -198 -22
-25 -27 -28 -36 -15 -16 22 -6 139 14 179 24 46 66 82 90 79 18 -3 21 -9 19
-45z"/>
<path d="M0 100 c0 -20 7 -20 500 -20 493 0 500 0 500 20 0 20 -7 20 -500 20
-493 0 -500 0 -500 -20z"/>
</g>
</svg>
