<svg width="134" height="134" viewBox="0 0 134 134" fill="none" xmlns="http://www.w3.org/2000/svg">
<g clip-path="url(#clip0_304_215)">
<path d="M26.534 8.49992C11.734 16.3666 0.934034 41.0333 3.2007 62.0999C4.0007 70.3666 8.26737 81.9666 11.4674 84.6333C14.4007 87.0333 13.734 89.5666 8.0007 96.3666C2.53403 102.767 1.6007 105.033 4.0007 106.5C5.06737 107.167 9.46737 103.033 15.6007 95.4333C17.8674 92.4999 18.134 92.3666 22.934 94.3666C25.734 95.5666 29.6007 96.4999 31.734 96.4999C37.8674 96.4999 47.334 92.6333 52.8007 87.9666C57.2007 84.2333 58.2674 83.8333 61.334 84.8999C63.334 85.6999 66.6674 85.8333 68.8007 85.2999C72.534 84.3666 82.8007 74.7666 89.6007 65.8333L93.2007 61.1666L93.334 68.7666C93.334 83.9666 96.6674 84.3666 110.001 70.6333C117.334 63.0333 120.801 60.4999 124.534 59.8333C127.201 59.2999 129.734 58.2333 130.134 57.5666C131.734 55.0333 128.267 53.4333 123.201 54.4999C119.467 55.1666 115.734 57.6999 108.534 64.7666L98.8007 74.0999L98.4007 64.3666C98.0007 55.4333 97.734 54.4999 95.0674 54.0999C92.8007 53.6999 90.134 56.2333 82.8007 65.4333C74.134 76.4999 69.334 80.4999 64.6674 80.4999C61.734 80.4999 62.134 79.2999 68.6674 69.8333C74.534 61.5666 80.0007 47.5666 80.0007 41.0333C80.0007 39.2999 78.6674 36.4999 77.2007 35.0333C71.334 29.1666 60.534 34.6333 54.2674 46.4999C52.134 50.6333 51.4674 54.2333 51.4674 62.4999C51.334 68.3666 51.8674 74.8999 52.4007 77.1666C53.4674 80.8999 53.0674 81.4333 46.534 85.8333C40.8007 89.6999 38.4007 90.4999 32.534 90.4999C21.4674 90.4999 21.2007 89.0333 29.8674 76.0999C42.6674 56.8999 50.534 36.4999 50.6674 22.7666C50.6674 9.03326 38.8007 2.09992 26.534 8.49992ZM42.534 14.6333C49.334 23.2999 42.534 46.6333 25.8674 72.0999L18.4007 83.6999L15.2007 80.0999C4.4007 67.4333 6.66737 37.0333 19.6007 21.8333C28.934 10.8999 37.4674 8.23325 42.534 14.6333ZM73.734 44.0999C73.4674 50.3666 67.334 64.2333 62.134 70.4999C59.2007 73.8333 58.534 74.2333 57.334 72.4999C55.2007 69.5666 56.534 53.9666 59.2007 48.6333C62.4007 42.4999 68.0007 37.6999 71.2007 38.0999C73.6007 38.4999 74.0007 39.2999 73.734 44.0999Z" fill="white"/>
<path d="M0 120.5C0 123.167 0.933333 123.167 66.6667 123.167C132.4 123.167 133.333 123.167 133.333 120.5C133.333 117.833 132.4 117.833 66.6667 117.833C0.933333 117.833 0 117.833 0 120.5Z" fill="white"/>
</g>
<defs>
<clipPath id="clip0_304_215">
<rect width="133.333" height="133.333" fill="white" transform="translate(0 0.5)"/>
</clipPath>
</defs>
</svg>
