<svg width="120" height="121" viewBox="0 0 120 121" fill="none" xmlns="http://www.w3.org/2000/svg">
<path d="M17.9993 17.7C16.5327 18.3667 13.866 20.5 11.9993 22.5L8.66602 26.1V56.6333V87.1667L12.9327 91.4333C16.5327 95.0333 18.3993 95.7 25.3327 96.2333C35.066 96.9 35.866 99.3 28.666 106.233C23.066 111.7 22.9327 112.5 27.7327 112.5C33.3327 112.5 44.266 106.767 48.9327 101.433L53.066 96.6333L77.866 96.2333L102.666 95.8333L106.933 91.4333L111.333 87.1667V56.5V25.8333L106.933 21.5667L102.666 17.1667L61.5994 16.9C39.066 16.7667 19.466 17.1667 17.9993 17.7ZM41.3327 51.1667C42.7994 52.6333 43.9994 55.0333 43.9994 56.5C43.9994 59.9667 39.466 64.5 35.9994 64.5C32.5327 64.5 27.9993 59.9667 27.9993 56.5C27.9993 55.0333 29.1994 52.6333 30.666 51.1667C32.1327 49.7 34.5327 48.5 35.9994 48.5C37.466 48.5 39.866 49.7 41.3327 51.1667ZM65.3327 51.1667C66.7994 52.6333 67.9994 55.0333 67.9994 56.5C67.9994 59.9667 63.466 64.5 59.9994 64.5C58.5327 64.5 56.1327 63.3 54.666 61.8333C53.1994 60.3667 51.9994 57.9667 51.9994 56.5C51.9994 55.0333 53.1994 52.6333 54.666 51.1667C56.1327 49.7 58.5327 48.5 59.9994 48.5C61.466 48.5 63.866 49.7 65.3327 51.1667ZM89.3327 51.1667C90.7994 52.6333 91.9994 55.0333 91.9994 56.5C91.9994 59.9667 87.466 64.5 83.9994 64.5C82.5327 64.5 80.1327 63.3 78.666 61.8333C77.1994 60.3667 75.9994 57.9667 75.9994 56.5C75.9994 55.0333 77.1994 52.6333 78.666 51.1667C80.1327 49.7 82.5327 48.5 83.9994 48.5C85.466 48.5 87.866 49.7 89.3327 51.1667Z" fill="white"/>
</svg>
