<?xml version="1.0" standalone="no"?>
<!DOCTYPE svg PUBLIC "-//W3C//DTD SVG 20010904//EN"
 "http://www.w3.org/TR/2001/REC-SVG-20010904/DTD/svg10.dtd">
<svg version="1.0" xmlns="http://www.w3.org/2000/svg"
 width="90.000000pt" height="90.000000pt" viewBox="0 0 90.000000 90.000000"
 preserveAspectRatio="xMidYMid meet">

<g transform="translate(0.000000,90.000000) scale(0.100000,-0.100000)"
fill="#000000" stroke="none">
<path d="M135 771 c-11 -5 -31 -21 -45 -36 l-25 -27 0 -229 0 -229 32 -32 c27
-27 41 -32 93 -36 73 -5 79 -23 25 -75 -42 -41 -43 -47 -7 -47 42 0 124 43
159 83 l31 36 186 3 186 3 32 33 33 32 0 230 0 230 -33 32 -32 33 -308 2
c-169 1 -316 -2 -327 -6z m175 -251 c11 -11 20 -29 20 -40 0 -26 -34 -60 -60
-60 -26 0 -60 34 -60 60 0 11 9 29 20 40 11 11 29 20 40 20 11 0 29 -9 40 -20z
m180 0 c11 -11 20 -29 20 -40 0 -26 -34 -60 -60 -60 -11 0 -29 9 -40 20 -11
11 -20 29 -20 40 0 11 9 29 20 40 11 11 29 20 40 20 11 0 29 -9 40 -20z m180
0 c11 -11 20 -29 20 -40 0 -26 -34 -60 -60 -60 -11 0 -29 9 -40 20 -11 11 -20
29 -20 40 0 11 9 29 20 40 11 11 29 20 40 20 11 0 29 -9 40 -20z"/>
</g>
</svg>
