<svg width="32" height="32" viewBox="0 0 32 32" fill="none" xmlns="http://www.w3.org/2000/svg">
<path d="M27.5656 4.93893C27.4702 4.83877 27.3736 4.7395 27.2754 4.64125C27.2646 4.63045 27.2527 4.62111 27.2415 4.61064C24.2272 1.63704 20.2398 0 16.0001 0C11.7242 0 7.70434 1.66428 4.68098 4.68638C-1.56033 10.9247 -1.56033 21.0753 4.68098 27.3136C7.70445 30.3357 11.7243 32 16.0001 32C20.2759 32 24.2959 30.3357 27.3192 27.3136C33.4772 21.1587 33.559 11.1956 27.5656 4.93893ZM7.0694 7.07375C9.4549 4.68942 12.6266 3.37628 16.0001 3.37628C18.7815 3.37628 21.4251 4.26964 23.6045 5.91917L5.91359 23.5972C2.1822 18.6548 2.56684 11.5742 7.0694 7.07375Z" fill="#212529"/>
</svg>
