<svg width="13" height="12" viewBox="0 0 13 12" fill="none" xmlns="http://www.w3.org/2000/svg">
<path d="M12.5723 0.671107L11.8951 0.104607C11.7978 0.0236879 11.6747 -0.0125347 11.5526 0.00386292C11.4305 0.0202606 11.3194 0.0879439 11.2436 0.192107L4.89798 8.95011L1.80452 5.64411C1.71725 5.55037 1.5989 5.49771 1.47549 5.49771C1.35209 5.49771 1.23373 5.55037 1.14646 5.64411L0.529815 6.30861C0.442567 6.40237 0.393555 6.52953 0.393555 6.66211C0.393555 6.79469 0.442567 6.92184 0.529815 7.01561L4.6839 11.4656C4.73057 11.516 4.78672 11.5552 4.8486 11.5805C4.91048 11.6057 4.97667 11.6165 5.04274 11.6121C5.10881 11.6077 5.17325 11.5882 5.23175 11.5549C5.29025 11.5217 5.34147 11.4754 5.38199 11.4191L12.6537 1.37261C12.7295 1.26797 12.7635 1.13529 12.7482 1.00374C12.7329 0.872195 12.6696 0.752548 12.5723 0.671107Z" fill="#2D9D78"/>
</svg>
